<svg width="33" height="33" viewBox="0 0 33 33" fill="none" xmlns="http://www.w3.org/2000/svg"><g clip-path="url(#clip0_2_505)"><mask id="mask0_2_505" style="mask-type:alpha" maskUnits="userSpaceOnUse" x="0" y="0" width="33" height="33"><path d="M32.5.5H.5v32h32V.5Z" fill="#D9D9D9"/></mask><g mask="url(#mask0_2_505)"><path d="M8.3 23.3a14 14 0 0 1 8.2-2.8 13 13 0 0 1 8.2 2.8 10.3 10.3 0 0 0 2.5-6.8c0-3-1-5.5-3.1-7.6-2.1-2-4.6-3-7.6-3s-5.5 1-7.5 3c-2.1 2.1-3.2 4.6-3.2 7.6a10.4 10.4 0 0 0 2.5 6.8Zm8.2-5.5a4.5 4.5 0 0 1-4.7-4.7c0-1.2.5-2.4 1.4-3.3.9-.9 2-1.3 3.3-1.3a4.5 4.5 0 0 1 4.7 4.7c0 1.3-.5 2.4-1.4 3.3-.9.9-2 1.3-3.3 1.3Zm0 12A13 13 0 0 1 7.1 26a13.5 13.5 0 0 1-2.9-14.6 13.5 13.5 0 0 1 12.3-8.1A13 13 0 0 1 25.9 7a13.5 13.5 0 0 1 2.9 14.6 13.5 13.5 0 0 1-12.3 8.1Zm0-2.6a10.6 10.6 0 0 0 6.2-2 10 10 0 0 0-6.2-2 10.6 10.6 0 0 0-6.2 2 10 10 0 0 0 6.2 2Zm0-12a2 2 0 0 0 2-2 2 2 0 0 0-2-2 2 2 0 0 0-2 2 2 2 0 0 0 2 2Z" fill="#E7E8FF"/></g></g><defs><clipPath id="clip0_2_505"><path fill="#fff" d="M.5.5h32v32H.5z"/></clipPath></defs></svg>